<?xml version="1.0" encoding="UTF-8" standalone="no"?>
<!-- Created with Inkscape (http://www.inkscape.org/) -->

<svg
   xmlns:dc="http://purl.org/dc/elements/1.1/"
   xmlns:cc="http://creativecommons.org/ns#"
   xmlns:rdf="http://www.w3.org/1999/02/22-rdf-syntax-ns#"
   xmlns:svg="http://www.w3.org/2000/svg"
   xmlns="http://www.w3.org/2000/svg"
   xmlns:sodipodi="http://sodipodi.sourceforge.net/DTD/sodipodi-0.dtd"
   xmlns:inkscape="http://www.inkscape.org/namespaces/inkscape"
   width="184.89262mm"
   height="185.0688mm"
   viewBox="0 0 655.13134 655.75559"
   id="svg2"
   version="1.1"
   inkscape:version="0.91 r13725"
   sodipodi:docname="pencil.svg"
   inkscape:export-filename="pencil.png"
   inkscape:export-xdpi="118.901"
   inkscape:export-ydpi="118.901">
  <defs
     id="defs4" />
  <sodipodi:namedview
     id="base"
     pagecolor="#b5b5b5"
     bordercolor="#666666"
     borderopacity="1.0"
     inkscape:pageopacity="0"
     inkscape:pageshadow="2"
     inkscape:zoom="0.35"
     inkscape:cx="104.24808"
     inkscape:cy="-94.562753"
     inkscape:document-units="px"
     inkscape:current-layer="layer1"
     showgrid="false"
     fit-margin-top="0"
     fit-margin-left="0"
     fit-margin-right="0"
     fit-margin-bottom="0"
     inkscape:window-width="1391"
     inkscape:window-height="876"
     inkscape:window-x="49"
     inkscape:window-y="24"
     inkscape:window-maximized="1" />
  <metadata
     id="metadata7">
    <rdf:RDF>
      <cc:Work
         rdf:about="">
        <dc:format>image/svg+xml</dc:format>
        <dc:type
           rdf:resource="http://purl.org/dc/dcmitype/StillImage" />
        <dc:title />
      </cc:Work>
    </rdf:RDF>
  </metadata>
  <g
     inkscape:label="Layer 1"
     inkscape:groupmode="layer"
     id="layer1"
     transform="translate(-56.273135,-150.7521)">
    <path
       sodipodi:nodetypes="ssccsss"
       inkscape:connector-curvature="0"
       style="fill:none;fill-rule:evenodd;stroke:#ffffff;stroke-width:40;stroke-linecap:round;stroke-linejoin:round;stroke-miterlimit:4;stroke-dasharray:none;stroke-opacity:1"
       d="m 585.25128,213.24637 c -41.87795,-41.87796 -62.6991,-65.8728 -119.26764,-9.30425 l -22.01422,22.01422 192.85509,192.85508 22.01422,-22.01422 c 56.15234,-56.15234 31.10323,-78.86016 -9.30288,-119.26626 z"
       id="path4150" />
    <path
       inkscape:connector-curvature="0"
       style="fill:#ffffff;fill-rule:evenodd;stroke:#ffffff;stroke-width:40;stroke-linecap:round;stroke-linejoin:round;stroke-miterlimit:4;stroke-dasharray:none;stroke-opacity:1"
       d="m 149.40479,781.63947 a 65.714287,65.714287 0 0 0 0.11049,-1.707 65.714287,65.714287 0 0 0 -0.2334,-6.56422 65.714287,65.714287 0 0 0 -0.88665,-6.50758 65.714287,65.714287 0 0 0 -1.5316,-6.38744 65.714287,65.714287 0 0 0 -2.16276,-6.20376 65.714287,65.714287 0 0 0 -2.77042,-5.95517 65.714287,65.714287 0 0 0 -3.35185,-5.64995 65.714287,65.714287 0 0 0 -3.89738,-5.28673 65.714287,65.714287 0 0 0 -4.40698,-4.87102 65.714287,65.714287 0 0 0 -3.40295,-3.17093 65.714287,65.714287 0 0 0 -5.17072,-4.05206 65.714287,65.714287 0 0 0 -5.54914,-3.51343 65.714287,65.714287 0 0 0 -5.87229,-2.94444 65.714287,65.714287 0 0 0 -6.13747,-2.3423 65.714287,65.714287 0 0 0 -6.340477,-1.71666 65.714287,65.714287 0 0 0 -6.479976,-1.07723 65.714287,65.714287 0 0 0 -6.554548,-0.42261 65.714287,65.714287 0 0 0 -3.626687,0.12706 l 2.666847,65.58001 65.597961,2.66546 z"
       id="path4192" />
    <path
       inkscape:connector-curvature="0"
       style="fill:none;fill-rule:evenodd;stroke:#ffffff;stroke-width:40;stroke-linecap:round;stroke-linejoin:round;stroke-miterlimit:4;stroke-dasharray:none;stroke-opacity:1"
       d="m 179.66952,585.20189 c -2.94244,-2.94244 -5.82061,-5.59664 -8.63029,-7.98671 -2.8097,-2.39007 -5.55139,-4.51718 -8.22151,-6.40401 -2.67012,-1.88683 -5.26825,-3.53361 -7.79199,-4.96632 -2.52373,-1.43272 -4.9726,-2.65004 -7.34313,-3.67779 -2.37053,-1.02773 -4.66308,-1.86513 -6.87357,-2.53702 -2.2105,-0.67188 -4.33966,-1.17887 -6.3833,-1.54404 -2.04364,-0.36515 -4.00233,-0.58849 -5.8723,-0.69605 -1.86997,-0.10757 -3.65111,-0.0995 -5.34059,10e-4 -1.68948,0.10089 -3.28738,0.29495 -4.78954,0.55519 -1.50217,0.26024 -2.90838,0.58663 -4.2164,0.95708 -2.03408,0.57608 -3.61613,1.28412 -5.15968,1.97493 l -32.774119,32.7745 4.866881,119.74135 a 65.714287,65.714287 0 0 1 3.626687,-0.12706 65.714287,65.714287 0 0 1 6.554548,0.42261 65.714287,65.714287 0 0 1 6.479976,1.07723 65.714287,65.714287 0 0 1 6.340477,1.71666 65.714287,65.714287 0 0 1 6.13747,2.3423 65.714287,65.714287 0 0 1 5.87229,2.94444 65.714287,65.714287 0 0 1 5.54914,3.51343 65.714287,65.714287 0 0 1 5.17072,4.05206 65.714287,65.714287 0 0 1 3.40295,3.17093 65.714287,65.714287 0 0 1 4.40698,4.87102 65.714287,65.714287 0 0 1 3.89738,5.28673 65.714287,65.714287 0 0 1 3.35185,5.64995 65.714287,65.714287 0 0 1 2.77042,5.95517 65.714287,65.714287 0 0 1 2.16276,6.20376 65.714287,65.714287 0 0 1 1.5316,6.38744 65.714287,65.714287 0 0 1 0.88665,6.50758 65.714287,65.714287 0 0 1 0.2334,6.56422 65.714287,65.714287 0 0 1 -0.11049,1.707 l 119.7234,4.86827 34.30987,-34.30987 c 0.43832,-0.94103 0.91498,-1.66158 1.30235,-2.76076 0.43738,-1.2411 0.83022,-2.58086 1.15181,-4.02167 0.3216,-1.44081 0.57178,-2.98258 0.72368,-4.62106 0.1519,-1.63848 0.20567,-3.37389 0.13396,-5.208 -0.0717,-1.83411 -0.26811,-3.76587 -0.61733,-5.79358 -0.34923,-2.02771 -0.85096,-4.15161 -1.53161,-6.37086 -0.68065,-2.21926 -1.54009,-4.53386 -2.60608,-6.94264 -1.06598,-2.40877 -2.33828,-4.91262 -3.84351,-7.50886 -1.50523,-2.59625 -3.24414,-5.28652 -5.24253,-8.0682 -1.99839,-2.78167 -4.25631,-5.65417 -6.80176,-8.61925 -2.54545,-2.96506 -5.37753,-6.02111 -8.52395,-9.16753 -3.14643,-3.14642 -6.20384,-5.97987 -9.16891,-8.52533 -2.96508,-2.54545 -5.83757,-4.80337 -8.61925,-6.80176 -2.78167,-1.99838 -5.47195,-3.7373 -8.0682,-5.24253 -2.59624,-1.50523 -5.10009,-2.77753 -7.50886,-3.84351 -2.40877,-1.06598 -4.72337,-1.92543 -6.94263,-2.60607 -2.21926,-0.68066 -4.34316,-1.18238 -6.37086,-1.53161 -2.02772,-0.34923 -3.95947,-0.54563 -5.79359,-0.61734 -1.83411,-0.0717 -3.56952,-0.0179 -5.208,0.13396 -1.63848,0.1519 -3.18024,0.40209 -4.62106,0.72368 -1.44081,0.3216 -2.78057,0.71444 -4.02166,1.15182 -2.48221,0.87476 -4.56303,1.92722 -6.23415,2.94167 -1.67111,1.01445 -2.93351,1.99093 -3.77722,2.7138 -0.84375,0.72283 -1.26921,1.19185 -1.26921,1.19185 0,0 0.4179,-0.47658 1.0579,-1.40316 0.64,-0.92659 1.50228,-2.30317 2.38924,-4.10177 0.88697,-1.79861 1.79889,-4.01997 2.5398,-6.63604 0.37044,-1.30802 0.69683,-2.71423 0.95707,-4.2164 0.26025,-1.50216 0.45429,-3.10006 0.55519,-4.78954 0.10091,-1.68948 0.10895,-3.47062 0.001,-5.34059 -0.10756,-1.86997 -0.33089,-3.82866 -0.69605,-5.8723 -0.36517,-2.04364 -0.87078,-4.17142 -1.54266,-6.38191 -0.67189,-2.2105 -1.50928,-4.50304 -2.53702,-6.87358 -1.02774,-2.37052 -2.24645,-4.82078 -3.67917,-7.34452 -1.43271,-2.52373 -3.07949,-5.12186 -4.96632,-7.79198 -1.88683,-2.67012 -4.01394,-5.41181 -6.40401,-8.2215 -2.39007,-2.80969 -5.04289,-5.68648 -7.98533,-8.62891 z"
       id="path4170" />
    <path
       style="fill:#ffffff;fill-rule:evenodd;stroke:#ffffff;stroke-width:40;stroke-linecap:round;stroke-linejoin:round;stroke-miterlimit:4;stroke-dasharray:none;stroke-opacity:1"
       d="m 443.96942,225.95634 -334.9222,334.92219 c 19.63494,-19.63493 52.89236,6.64475 70.6223,24.32336 32.68706,32.68706 20.30998,77.60221 20.30998,77.60221 0,0 39.36007,-17.93216 77.6036,20.31137 20.32209,20.32209 43.62351,51.31386 25.85497,69.0824 L 636.82451,418.81143 Z"
       id="path4136"
       inkscape:connector-curvature="0"
       sodipodi:nodetypes="cccccccc" />
  </g>
</svg>
