<?xml version="1.0" encoding="UTF-8" standalone="no"?>
<!-- Created with Inkscape (http://www.inkscape.org/) -->

<svg
   xmlns:dc="http://purl.org/dc/elements/1.1/"
   xmlns:cc="http://creativecommons.org/ns#"
   xmlns:rdf="http://www.w3.org/1999/02/22-rdf-syntax-ns#"
   xmlns:svg="http://www.w3.org/2000/svg"
   xmlns="http://www.w3.org/2000/svg"
   xmlns:sodipodi="http://sodipodi.sourceforge.net/DTD/sodipodi-0.dtd"
   xmlns:inkscape="http://www.inkscape.org/namespaces/inkscape"
   width="57.250874mm"
   height="51.65163mm"
   viewBox="0 0 202.85743 183.01759"
   id="svg2"
   version="1.1"
   inkscape:version="0.91 r13725"
   sodipodi:docname="user.svg"
   inkscape:export-filename="user.png"
   inkscape:export-xdpi="118.90125"
   inkscape:export-ydpi="118.90125">
  <defs
     id="defs4" />
  <sodipodi:namedview
     id="base"
     pagecolor="#ffffff"
     bordercolor="#666666"
     borderopacity="1.0"
     inkscape:pageopacity="0.0"
     inkscape:pageshadow="2"
     inkscape:zoom="1.4"
     inkscape:cx="-76.508931"
     inkscape:cy="24.635933"
     inkscape:document-units="px"
     inkscape:current-layer="layer1"
     showgrid="false"
     fit-margin-top="0"
     fit-margin-left="0"
     fit-margin-right="0"
     fit-margin-bottom="0"
     inkscape:window-width="1391"
     inkscape:window-height="876"
     inkscape:window-x="49"
     inkscape:window-y="24"
     inkscape:window-maximized="1" />
  <metadata
     id="metadata7">
    <rdf:RDF>
      <cc:Work
         rdf:about="">
        <dc:format>image/svg+xml</dc:format>
        <dc:type
           rdf:resource="http://purl.org/dc/dcmitype/StillImage" />
        <dc:title />
      </cc:Work>
    </rdf:RDF>
  </metadata>
  <g
     inkscape:label="Layer 1"
     inkscape:groupmode="layer"
     id="layer1"
     transform="translate(-222.85741,-335.21874)">
    <path
       style="fill:#d35f5f;fill-rule:evenodd;stroke:#000000;stroke-width:0;stroke-linecap:butt;stroke-linejoin:miter;stroke-miterlimit:4;stroke-dasharray:none;stroke-opacity:1"
       d="m 324.28516,335.21875 a 101.42857,101.42857 0 0 0 -101.42774,101.42969 101.42857,101.42857 0 0 0 41.36914,81.58789 71.5056,100.07703 0 0 1 60.0586,-45.95117 71.5056,100.07703 0 0 1 60.12109,45.91015 101.42857,101.42857 0 0 0 41.30859,-81.54687 101.42857,101.42857 0 0 0 -101.42968,-101.42969 z m 0,49.28711 A 35.714287,35.714287 0 0 1 360,420.21875 a 35.714287,35.714287 0 0 1 -35.71484,35.71484 35.714287,35.714287 0 0 1 -35.71289,-35.71484 35.714287,35.714287 0 0 1 35.71289,-35.71289 z"
       id="path3336"
       inkscape:connector-curvature="0" />
  </g>
</svg>
